<?xml version="1.0" encoding="UTF-8" standalone="no"?>
<svg
   xmlns:dc="http://purl.org/dc/elements/1.1/"
   xmlns:cc="http://creativecommons.org/ns#"
   xmlns:rdf="http://www.w3.org/1999/02/22-rdf-syntax-ns#"
   xmlns:svg="http://www.w3.org/2000/svg"
   xmlns="http://www.w3.org/2000/svg"
   xmlns:sodipodi="http://sodipodi.sourceforge.net/DTD/sodipodi-0.dtd"
   xmlns:inkscape="http://www.inkscape.org/namespaces/inkscape"
   width="220.07562mm"
   height="220.0985mm"
   viewBox="0 0 220.07562 220.09849"
   version="1.1"
   id="svg50"
   inkscape:version="1.0.2 (e86c870879, 2021-01-15)"
   sodipodi:docname="favicon.svg">
  <defs
     id="defs44" />
  <sodipodi:namedview
     id="base"
     pagecolor="#ffffff"
     bordercolor="#666666"
     borderopacity="1.0"
     inkscape:pageopacity="0.0"
     inkscape:pageshadow="2"
     inkscape:zoom="0.71"
     inkscape:cx="421.51539"
     inkscape:cy="449.24995"
     inkscape:document-units="mm"
     inkscape:current-layer="layer1"
     inkscape:document-rotation="0"
     showgrid="false"
     fit-margin-top="32.6"
     fit-margin-left="10"
     fit-margin-right="10"
     fit-margin-bottom="32.6"
     lock-margins="false"
     inkscape:window-width="1920"
     inkscape:window-height="977"
     inkscape:window-x="0"
     inkscape:window-y="30"
     inkscape:window-maximized="1" />
  <metadata
     id="metadata47">
    <rdf:RDF>
      <cc:Work
         rdf:about="">
        <dc:format>image/svg+xml</dc:format>
        <dc:type
           rdf:resource="http://purl.org/dc/dcmitype/StillImage" />
        <dc:title></dc:title>
      </cc:Work>
    </rdf:RDF>
  </metadata>
  <g
     inkscape:label="Layer 1"
     inkscape:groupmode="layer"
     id="layer1"
     transform="translate(5.6926128,-29.302616)">
    <rect
       style="fill:#00b200;stroke:#000000;stroke-width:0.264999;stroke-opacity:1"
       id="rect52"
       width="3.9986093"
       height="151.83867"
       x="-21.085052"
       y="71.021202"
       transform="rotate(-20)" />
    <path
       style="fill:#00b200;fill-opacity:1;stroke:#000000;stroke-width:0.264583px;stroke-linecap:butt;stroke-linejoin:miter;stroke-opacity:1"
       d="M 13.513694,70.737954 50.6789,172.59227 c 42.435911,-21.05689 96.94579,8.58832 153.52084,-9.9105 L 157.64377,63.38286 C 116.19531,79.824513 56.610382,47.596825 13.513694,70.737954 Z"
       id="path54"
       sodipodi:nodetypes="ccccc" />
    <path
       id="text58"
       style="font-size:3.52777px;line-height:1.25;font-family:sans-serif;-inkscape-font-specification:'sans-serif, Normal';letter-spacing:0px;word-spacing:0px;writing-mode:lr-tb;fill:#ffffff;fill-opacity:1;stroke:#000000;stroke-width:0.311473;stroke-opacity:1"
       d="m 93.167911,82.980623 c 0.582226,1.439135 1.170136,2.884714 1.755966,4.327285 -4.157095,0.315376 -8.67491,1.193825 -11.592266,4.081318 -2.195086,2.084957 -2.535023,5.186136 -1.860365,7.878486 1.150321,4.741348 4.237845,9.100508 8.659564,11.926568 4.922717,3.28561 10.99606,4.61142 16.86621,5.84303 2.26538,5.58681 4.55297,11.16641 6.78827,16.76279 -4.07862,-0.41588 -8.20231,-1.74276 -11.17989,-4.4148 -1.71632,-1.49797 -3.031343,-3.27387 -4.198743,-5.16051 -3.07106,0.6495 -6.141587,1.30103 -9.212126,1.9525 3.142868,5.40278 8.011036,10.12133 14.228329,12.7177 4.26285,1.84964 8.96953,2.7713 13.68004,3.03074 0.85098,2.09322 1.70103,4.18676 2.55259,6.27979 2.67725,0 5.35451,0 8.03176,0 -0.85331,-2.10711 -1.71172,-4.21255 -2.56715,-6.31897 4.35527,-0.34396 9.04754,-1.33679 12.1066,-4.34139 2.34812,-2.23662 2.92601,-5.52383 2.28187,-8.45706 -1.35977,-6.30761 -6.05483,-12.01244 -12.51592,-14.85299 -4.62138,-2.18206 -9.7654,-3.19048 -14.81761,-4.22854 -1.99559,-4.91355 -3.99118,-9.8271 -5.98678,-14.740637 3.51018,0.487656 6.87197,1.968347 9.1981,4.457459 1.06022,1.089568 1.89324,2.333788 2.71475,3.572398 3.18084,-0.58452 6.36279,-1.1643 9.54485,-1.74354 -3.31112,-5.052645 -7.86766,-9.755518 -14.01423,-12.067846 -3.37034,-1.320944 -7.02508,-1.974311 -10.68338,-2.198263 -0.69068,-1.699243 -1.38036,-3.398807 -2.07169,-5.097838 -2.677263,0 -5.354513,0 -8.031769,0 0.107675,0.264107 0.215346,0.528213 0.32302,0.79232 z m 4.874436,12.076347 c 0.33517,0.204064 0.19923,0.815072 0.47868,1.113742 1.650643,4.063418 3.301283,8.126838 4.951933,12.190258 -3.716833,-0.83198 -7.755263,-2.00235 -10.042745,-4.96222 -1.205802,-1.57625 -2.173392,-3.587368 -1.62325,-5.514382 0.928611,-2.191643 4.003252,-2.524623 6.235382,-2.827398 z m 19.718743,24.23105 c 3.6932,0.84388 7.66869,2.156 9.78968,5.19491 1.13859,1.66208 2.01868,3.68722 1.59856,5.66032 -0.72159,2.26228 -3.50339,3.21536 -5.85821,3.55998 -0.5321,-0.0466 -1.54206,0.56745 -1.58836,-0.23278 -1.98502,-4.8871 -3.97005,-9.7742 -5.95508,-14.6613 0.67113,0.15962 1.34228,0.31925 2.01341,0.47887 z" />
  </g>
</svg>
